<svg width="50" height="28" viewBox="0 0 50 28" fill="none" xmlns="http://www.w3.org/2000/svg">
<mask id="mask0_42_5" style="mask-type:luminance" maskUnits="userSpaceOnUse" x="0" y="0" width="50" height="28">
<path d="M25.9009 15.0706C25.9009 15.0706 21.3751 17.3432 17.0808 18.1959C17.0808 18.1959 22.6638 21.977 25.5652 25.7157H25.5498L26.5453 27.1703C26.5954 27.2591 26.6417 27.3439 26.688 27.4327L26.7189 27.425L26.7227 27.4288C39.7253 26.9427 50 20.997 50 13.7318C50 9.10564 45.833 5.01196 39.4475 2.52335L36.8778 6.65947C40.9484 8.63879 43.5373 11.6097 43.5373 14.9356C43.5373 18.3618 40.7863 21.4175 36.5036 23.3891C36.4766 23.3506 33.4324 18.628 25.9009 15.0706ZM25.0019 0C29.1921 0 33.1353 0.567172 36.6039 1.56648L36.6155 1.57034L36.6463 1.57805L37.256 1.75939C29.4467 15.5953 15.985 17.8525 15.985 17.8525L13.2225 16.5754C20.4607 12.2039 24.0836 7.44271 25.8546 4.16313L27.2552 0.76009L25.1293 4.15541H25.1563C18.6434 4.194 6.46269 6.9797 6.46269 14.9317C6.46269 20.8156 14.5613 25.5961 24.6277 25.7119L25.0791 27.4558H24.9981C11.193 27.4558 0 21.3095 0 13.7241C0.00385832 6.15017 11.1969 0 25.0019 0Z" fill="white"/>
</mask>
<g mask="url(#mask0_42_5)">
<path d="M50 0H0.00385857V27.4635H50V0Z" fill="url(#paint0_linear_42_5)"/>
</g>
<defs>
<linearGradient id="paint0_linear_42_5" x1="20.4422" y1="-0.671696" x2="29.5633" y2="28.1384" gradientUnits="userSpaceOnUse">
<stop stop-color="#34F86E"/>
<stop offset="0.21" stop-color="#32ED69"/>
<stop offset="0.78" stop-color="#1E893D"/>
<stop offset="1" stop-color="#1C8139"/>
</linearGradient>
</defs>
</svg>
