<svg width="119" height="34" viewBox="0 0 119 34" fill="none" xmlns="http://www.w3.org/2000/svg">
<g clip-path="url(#clip0_8_182)">
<path d="M1.72332 29.9572C1.7416 29.9572 1.75987 29.9566 1.77815 29.9545C4.51758 29.6659 8.06006 27.4512 11.627 24.5542C11.778 27.7143 13.2107 30.1921 13.279 30.3083C13.3309 30.3962 13.4076 30.4668 13.4996 30.5112C13.5915 30.5556 13.6945 30.5718 13.7957 30.5578C13.8968 30.5439 13.9916 30.5003 14.068 30.4327C14.1445 30.365 14.1993 30.2763 14.2254 30.1776C14.5826 28.8177 15.1319 27.4916 15.4595 27.1688C16.1225 27.7981 17.7396 30.3831 18.6465 31.9398C18.7053 32.0417 18.7972 32.1204 18.9069 32.163C19.0166 32.2056 19.1375 32.2095 19.2497 32.174C19.3619 32.1386 19.4586 32.0659 19.5239 31.968C19.5892 31.8702 19.6191 31.7529 19.6088 31.6357C19.444 29.6897 19.6691 26.7347 20.6846 26.2572C21.7097 25.7755 23.4006 26.9137 25.5425 28.355C26.1638 28.7732 26.8065 29.2056 27.4999 29.6445C27.6637 29.7486 27.8723 29.7521 28.0392 29.6531C28.206 29.5542 28.3043 29.3707 28.2929 29.177C28.255 28.5329 28.6015 27.8188 29.2687 27.1664C30.1324 26.3217 31.3892 25.7321 32.1933 25.8C32.2993 25.8086 32.4054 25.7844 32.4971 25.7305C32.5888 25.6767 32.6617 25.5959 32.7058 25.4992C32.75 25.4024 32.7632 25.2944 32.7437 25.1898C32.7243 25.0853 32.6731 24.9893 32.5971 24.9149C31.0972 23.446 30.7707 21.0731 31.1003 20.3222C31.1346 20.2439 31.1489 20.1584 31.1421 20.0732C31.1353 19.988 31.1075 19.9059 31.0612 19.8341C31.0149 19.7623 30.9515 19.7031 30.8768 19.6617C30.802 19.6203 30.7182 19.5981 30.6327 19.597C29.6776 19.5857 29.0994 19.5239 28.2991 19.4384C27.9519 19.4015 27.5664 19.3602 27.0951 19.3171C25.8531 19.2036 25.0287 18.8243 24.8891 18.3027C24.8029 17.9813 24.9973 17.5975 25.3842 17.3255C26.612 16.4611 32.9577 12.6766 33.0215 12.6383C33.1088 12.5863 33.1789 12.5097 33.2229 12.4181C33.2669 12.3265 33.283 12.2239 33.2691 12.1232C33.2552 12.0226 33.2119 11.9282 33.1447 11.852C33.0775 11.7757 32.9893 11.721 32.8912 11.6946C32.1181 11.4853 30.7696 10.9195 30.4424 10.2919C29.7356 8.93755 29.9487 7.38491 31.1548 5.09992C31.2064 5.00219 31.2254 4.89049 31.2089 4.78119C31.1924 4.67189 31.1413 4.57075 31.0632 4.49259C30.985 4.41443 30.8839 4.36337 30.7746 4.34689C30.6653 4.33041 30.5536 4.34938 30.4559 4.40101C28.1716 5.60712 26.6186 5.82056 25.2639 5.11337C24.6363 4.78616 24.0705 3.43764 23.8616 2.6646C23.8351 2.56646 23.7804 2.47828 23.7042 2.41107C23.6279 2.34386 23.5336 2.3006 23.4329 2.28669C23.3322 2.27279 23.2297 2.28886 23.1381 2.33289C23.0465 2.37692 22.9699 2.44696 22.9178 2.53427C22.8799 2.5984 19.095 8.9441 18.2306 10.1719C17.9582 10.5585 17.5748 10.7536 17.2535 10.6671C16.7314 10.5274 16.3522 9.703 16.2387 8.46138C16.2016 8.05902 16.1611 7.65697 16.1173 7.25527C16.0318 6.45568 15.9701 5.87779 15.9591 4.92339C15.958 4.83796 15.9358 4.75412 15.8944 4.67936C15.8531 4.60461 15.7938 4.54125 15.722 4.49495C15.6502 4.44865 15.5681 4.42085 15.4829 4.41403C15.3978 4.4072 15.3122 4.42156 15.234 4.45584C14.4826 4.78581 12.1097 4.45894 10.6416 2.95906C10.5672 2.88306 10.4712 2.83184 10.3666 2.81238C10.2621 2.79291 10.1541 2.80615 10.0573 2.85029C9.96056 2.89443 9.87976 2.96732 9.82593 3.05903C9.7721 3.15075 9.74784 3.25683 9.75647 3.36282C9.82164 4.16655 9.2341 5.42404 8.38969 6.28742C7.73733 6.95426 7.02876 7.3063 6.37916 7.26285C6.28425 7.25808 6.18982 7.27916 6.10596 7.32386C6.0221 7.36855 5.95195 7.43518 5.90299 7.51663C5.85468 7.59861 5.82992 7.69233 5.83144 7.78747C5.83296 7.88262 5.8607 7.9755 5.91161 8.05589C6.35054 8.74894 6.78292 9.39165 7.20116 10.013C8.64243 12.1549 9.78061 13.8468 9.29893 14.8712C8.82172 15.8866 5.86644 16.1118 3.92073 15.947C3.80387 15.938 3.68736 15.9685 3.58998 16.0338C3.49259 16.099 3.42 16.1951 3.38388 16.3066C3.3485 16.4186 3.35226 16.5392 3.39456 16.6488C3.43686 16.7583 3.51517 16.8502 3.61662 16.9093C5.17374 17.8158 7.7587 19.4329 8.38762 20.0963C8.06489 20.4239 6.73913 20.9728 5.37924 21.33C5.28032 21.3559 5.1913 21.4105 5.12343 21.487C5.05555 21.5635 5.01185 21.6583 4.99787 21.7596C4.98389 21.8609 5.00024 21.9641 5.04486 22.056C5.08948 22.148 5.16036 22.2248 5.24856 22.2765C5.36165 22.3427 7.71871 23.7033 10.7636 23.9126C7.24288 26.7454 4.02452 28.6773 1.66988 28.9256C1.53803 28.9393 1.41647 29.003 1.33028 29.1038C1.24409 29.2045 1.19986 29.3344 1.20672 29.4668C1.21358 29.5992 1.271 29.7239 1.36713 29.8151C1.46326 29.9064 1.59077 29.9573 1.72332 29.9572ZM6.94118 21.9393C8.0042 21.571 9.19686 21.0221 9.42236 20.3632C9.51822 20.0829 9.46857 19.7956 9.28306 19.5539C8.82862 18.9633 7.13186 17.8455 5.80093 17.019C7.45631 16.9569 9.62235 16.6159 10.2351 15.3126C10.9664 13.7572 9.68338 11.8504 8.05937 9.43682C7.78121 9.02534 7.5056 8.61214 7.23254 8.19726C7.88766 8.01866 8.53933 7.6149 9.12894 7.01218C9.88164 6.24259 10.4426 5.25198 10.6761 4.34654C12.0746 5.35059 13.8006 5.70884 14.9412 5.57989C14.9688 6.24052 15.0233 6.75393 15.0888 7.36629C15.1254 7.70972 15.1664 8.09072 15.2088 8.55654C15.4233 10.9074 16.4146 11.5149 16.9862 11.6677C17.7324 11.8663 18.5516 11.5139 19.0764 10.7688C19.7646 9.79162 22.1382 5.8509 23.2406 4.01139C23.5557 4.75099 24.0671 5.65678 24.7853 6.03157C26.1569 6.74703 27.683 6.72566 29.6183 5.93813C28.8305 7.8735 28.8091 9.39958 29.5249 10.7712C29.8997 11.4894 30.8055 12.0011 31.5454 12.3162C29.7059 13.4186 25.7652 15.7922 24.788 16.4804C24.0429 17.0052 23.6898 17.8258 23.8891 18.5706C24.0419 19.1422 24.6498 20.1335 27.0006 20.348C27.4654 20.3904 27.8461 20.4311 28.1884 20.4677C28.8015 20.5332 29.3156 20.5883 29.9769 20.6156C29.8476 21.7565 30.2062 23.4822 31.2103 24.8808C30.3052 25.1142 29.3142 25.6752 28.545 26.4275C27.9419 27.0171 27.5378 27.6688 27.3596 28.3239C26.9446 28.0509 26.5312 27.7753 26.1196 27.4971C23.706 25.8731 21.7997 24.5901 20.2443 25.3214C18.9409 25.9341 18.5999 28.1005 18.5378 29.7555C17.7117 28.425 16.5939 26.7278 16.0032 26.2734C15.8529 26.1538 15.6668 26.0878 15.4746 26.0862C15.3815 26.0862 15.2874 26.102 15.1943 26.1341C14.5347 26.3596 13.9858 27.554 13.6172 28.6174C13.1576 27.4995 12.5962 25.6897 12.6611 23.6974C13.2616 23.1885 13.8545 22.6707 14.4395 22.1441C15.436 23.3243 17.0914 25.8458 17.5096 26.6258C17.5745 26.7466 17.6847 26.8368 17.8161 26.8764C17.9474 26.916 18.089 26.9019 18.2099 26.8371C18.2698 26.8051 18.3228 26.7615 18.3658 26.7089C18.4088 26.6563 18.441 26.5958 18.4607 26.5308C18.4803 26.4658 18.4869 26.3975 18.4802 26.3299C18.4734 26.2623 18.4534 26.1967 18.4213 26.1369C18.0465 25.438 16.6773 23.3278 15.6191 21.9627C19.3985 22.1596 22.6758 23.1802 25.1277 23.946C26.3114 24.316 27.3333 24.6353 28.1743 24.7921C28.2411 24.8046 28.3097 24.8037 28.3761 24.7896C28.4426 24.7756 28.5056 24.7485 28.5617 24.7101C28.6177 24.6717 28.6656 24.6226 28.7026 24.5656C28.7396 24.5087 28.7651 24.445 28.7775 24.3782C28.79 24.3114 28.7891 24.2428 28.775 24.1764C28.761 24.1099 28.7339 24.0469 28.6955 23.9909C28.6571 23.9349 28.608 23.887 28.551 23.8499C28.4941 23.8129 28.4304 23.7874 28.3636 23.775C27.583 23.6295 26.5879 23.3185 25.4356 22.9585C22.9468 22.181 19.6271 21.1469 15.7581 20.9338C20.2567 16.7307 24.2867 12.1921 26.1486 10.0302C26.1929 9.97874 26.2267 9.91903 26.2479 9.8545C26.2692 9.78997 26.2775 9.72189 26.2725 9.65414C26.2674 9.58639 26.2491 9.5203 26.2185 9.45964C26.1879 9.39899 26.1456 9.34495 26.0941 9.30062C26.0427 9.25629 25.9829 9.22254 25.9184 9.20129C25.8539 9.18003 25.7858 9.1717 25.7181 9.17676C25.6503 9.18182 25.5842 9.20017 25.5236 9.23077C25.4629 9.26137 25.4089 9.30362 25.3645 9.3551C22.1507 13.0869 18.5127 16.9576 14.9567 20.2646C14.7716 16.3128 13.7772 12.99 13.0317 10.5071C12.7 9.40234 12.4138 8.44862 12.2708 7.68248C12.2583 7.61569 12.2328 7.55201 12.1958 7.49507C12.1587 7.43813 12.1108 7.38905 12.0547 7.35063C11.9987 7.31221 11.9357 7.2852 11.8692 7.27114C11.8027 7.25709 11.7341 7.25626 11.6674 7.26872C11.6006 7.28117 11.5369 7.30665 11.4799 7.34372C11.423 7.38078 11.3739 7.42869 11.3355 7.48472C11.2971 7.54075 11.2701 7.6038 11.256 7.67027C11.242 7.73674 11.2411 7.80533 11.2536 7.87212C11.4067 8.69274 11.7005 9.67163 12.0408 10.8046C12.7673 13.2241 13.7351 16.459 13.921 20.268C12.6097 19.2619 10.6409 18.0182 9.90922 17.6255C9.78833 17.5606 9.64663 17.5465 9.5153 17.5861C9.38397 17.6258 9.27377 17.7159 9.20893 17.8368C9.1441 17.9577 9.12994 18.0994 9.16958 18.2308C9.20922 18.3621 9.2994 18.4723 9.42029 18.5371C10.2157 18.9636 12.5442 20.4546 13.7 21.4117C13.1405 21.9137 12.574 22.4076 12.0004 22.8933C9.95611 22.9892 8.08764 22.4096 6.94118 21.9393Z" fill="#06113C"/>
<path d="M39 0V34.48" stroke="#FF8C32" stroke-width="3"/>
<path d="M53.9219 16H51.6758L47.2617 11.1953H47.2227V16H45.6211V1.19531H47.2227V10.5801H47.2617L51.4609 6H53.5605L48.9219 10.8242L53.9219 16ZM64.6484 16H63.0469V14.418H63.0078C62.3438 15.6289 61.3151 16.2344 59.9219 16.2344C57.5391 16.2344 56.3477 14.8151 56.3477 11.9766V6H57.9395V11.7227C57.9395 13.832 58.7467 14.8867 60.3613 14.8867C61.1426 14.8867 61.7839 14.6003 62.2852 14.0273C62.793 13.4479 63.0469 12.6927 63.0469 11.7617V6H64.6484V16ZM73.5293 15.9023C73.1517 16.1107 72.6536 16.2148 72.0352 16.2148C70.2839 16.2148 69.4082 15.2383 69.4082 13.2852V7.36719H67.6895V6H69.4082V3.55859L71.0098 3.04102V6H73.5293V7.36719H71.0098V13.002C71.0098 13.6725 71.1237 14.151 71.3516 14.4375C71.5794 14.724 71.957 14.8672 72.4844 14.8672C72.888 14.8672 73.2363 14.7565 73.5293 14.5352V15.9023ZM78.2695 16H76.668V1.19531H78.2695V16ZM90.5977 16H88.9961V14.418H88.957C88.293 15.6289 87.2643 16.2344 85.8711 16.2344C83.4883 16.2344 82.2969 14.8151 82.2969 11.9766V6H83.8887V11.7227C83.8887 13.832 84.696 14.8867 86.3105 14.8867C87.0918 14.8867 87.7331 14.6003 88.2344 14.0273C88.7422 13.4479 88.9961 12.6927 88.9961 11.7617V6H90.5977V16Z" fill="#06113C"/>
<path d="M49.8008 33.2344C48.3229 33.2344 47.1413 32.7689 46.2559 31.8379C45.377 30.9004 44.9375 29.6602 44.9375 28.1172C44.9375 26.4375 45.3965 25.1257 46.3145 24.1816C47.2324 23.2376 48.4727 22.7656 50.0352 22.7656C51.526 22.7656 52.6882 23.2246 53.5215 24.1426C54.3613 25.0605 54.7812 26.3333 54.7812 27.9609C54.7812 29.556 54.3288 30.8353 53.4238 31.7988C52.5254 32.7559 51.3177 33.2344 49.8008 33.2344ZM49.918 24.1133C48.8893 24.1133 48.0755 24.4648 47.4766 25.168C46.8776 25.8646 46.5781 26.8281 46.5781 28.0586C46.5781 29.2435 46.8809 30.1777 47.4863 30.8613C48.0918 31.5449 48.9023 31.8867 49.918 31.8867C50.9531 31.8867 51.7474 31.5514 52.3008 30.8809C52.8607 30.2103 53.1406 29.2565 53.1406 28.0195C53.1406 26.7695 52.8607 25.806 52.3008 25.1289C51.7474 24.4518 50.9531 24.1133 49.918 24.1133ZM63.5547 24.6211C63.2747 24.4062 62.8711 24.2988 62.3438 24.2988C61.6602 24.2988 61.0872 24.6211 60.625 25.2656C60.1693 25.9102 59.9414 26.7891 59.9414 27.9023V33H58.3398V23H59.9414V25.0605H59.9805C60.2083 24.3574 60.5566 23.8105 61.0254 23.4199C61.4941 23.0228 62.0182 22.8242 62.5977 22.8242C63.0143 22.8242 63.3333 22.8698 63.5547 22.9609V24.6211ZM80.4922 33H78.8906V27.2578C78.8906 26.151 78.7181 25.3503 78.373 24.8555C78.0345 24.3607 77.4616 24.1133 76.6543 24.1133C75.9707 24.1133 75.388 24.4258 74.9062 25.0508C74.431 25.6758 74.1934 26.4245 74.1934 27.2969V33H72.5918V27.0625C72.5918 25.0964 71.8333 24.1133 70.3164 24.1133C69.6133 24.1133 69.0339 24.4095 68.5781 25.002C68.1224 25.5879 67.8945 26.3529 67.8945 27.2969V33H66.293V23H67.8945V24.582H67.9336C68.6432 23.3711 69.6784 22.7656 71.0391 22.7656C71.7227 22.7656 72.3184 22.9577 72.8262 23.3418C73.334 23.7194 73.6823 24.2174 73.8711 24.8359C74.6133 23.4557 75.7201 22.7656 77.1914 22.7656C79.3919 22.7656 80.4922 24.123 80.4922 26.8379V33ZM91.6777 33H90.0762V31.4375H90.0371C89.3405 32.6354 88.3151 33.2344 86.9609 33.2344C85.9648 33.2344 85.1836 32.9707 84.6172 32.4434C84.0573 31.916 83.7773 31.2161 83.7773 30.3438C83.7773 28.4753 84.8776 27.388 87.0781 27.082L90.0762 26.6621C90.0762 24.9629 89.3893 24.1133 88.0156 24.1133C86.8112 24.1133 85.724 24.5234 84.7539 25.3438V23.7031C85.737 23.0781 86.8698 22.7656 88.1523 22.7656C90.5026 22.7656 91.6777 24.0091 91.6777 26.4961V33ZM90.0762 27.9414L87.6641 28.2734C86.9219 28.3776 86.362 28.5632 85.9844 28.8301C85.6068 29.0905 85.418 29.556 85.418 30.2266C85.418 30.7148 85.5905 31.1152 85.9355 31.4277C86.2871 31.7337 86.7526 31.8867 87.332 31.8867C88.1263 31.8867 88.7806 31.61 89.2949 31.0566C89.8158 30.4967 90.0762 29.7904 90.0762 28.9375V27.9414ZM103.996 33H102.395V27.2969C102.395 25.1745 101.62 24.1133 100.07 24.1133C99.2695 24.1133 98.6055 24.416 98.0781 25.0215C97.5573 25.6204 97.2969 26.3789 97.2969 27.2969V33H95.6953V23H97.2969V24.6602H97.3359C98.0911 23.3971 99.1849 22.7656 100.617 22.7656C101.711 22.7656 102.548 23.1204 103.127 23.8301C103.706 24.5332 103.996 25.5521 103.996 26.8867V33Z" fill="#06113C"/>
</g>
<defs>
<clipPath id="clip0_8_182">
<rect width="119" height="34" fill="white"/>
</clipPath>
</defs>
</svg>
