<svg width="200" height="36" viewBox="0 0 200 36" fill="none" xmlns="http://www.w3.org/2000/svg">
<mask id="mask0_21_34" style="mask-type:luminance" maskUnits="userSpaceOnUse" x="0" y="0" width="63" height="35">
<path d="M32.3674 19.4985C32.3674 19.4985 26.7117 22.3385 21.3452 23.404C21.3452 23.404 28.3221 28.1292 31.9479 32.8013H31.9286L33.1726 34.6191C33.2353 34.73 33.2932 34.8361 33.351 34.947L33.3896 34.9373L33.3944 34.9421C49.6432 34.3346 62.4831 26.9045 62.4831 17.8255C62.4831 12.0444 57.2758 6.92864 49.2961 3.81871L46.0849 8.98746C51.1717 11.4609 54.4069 15.1736 54.4069 19.3298C54.4069 23.6114 50.9691 27.4301 45.6172 29.8939C45.5834 29.8457 41.7792 23.9441 32.3674 19.4985ZM31.244 0.665375C36.4802 0.665375 41.4079 1.37415 45.7425 2.62294L45.757 2.62777L45.7956 2.63741L46.5574 2.86402C36.7985 20.1543 19.9759 22.9749 19.9759 22.9749L16.5236 21.379C25.569 15.9161 30.0964 9.96625 32.3095 5.86789L34.0598 1.61523L31.4031 5.85824H31.4368C23.298 5.90646 8.07618 9.38765 8.07618 19.325C8.07618 26.6779 18.1967 32.6519 30.7763 32.7965L31.3404 34.9759H31.2392C13.9875 34.9759 0 27.2951 0 17.8158C0.0048216 8.35101 13.9923 0.665375 31.244 0.665375Z" fill="white"/>
</mask>
<g mask="url(#mask0_21_34)">
<path d="M62.4831 0.665375H0.00482178V34.9855H62.4831V0.665375Z" fill="url(#paint0_linear_21_34)"/>
</g>
<path d="M177.194 16.6924V0.00481895H182.864V16.9045C182.864 18.5198 183.168 19.7686 183.78 20.6413C183.12 20.4002 182.093 19.7541 181.75 19.4166C181.095 18.7753 182.965 21.4658 185.8 22.0781C186.562 22.3337 187.488 22.4638 188.578 22.4638C190.709 22.4638 192.228 22.0395 193.129 21.2006C194.041 20.352 194.494 18.92 194.494 16.8997V0H200V17.4879C200 20.487 199.012 22.7917 197.04 24.4021C195.058 26.0174 192.247 26.8226 188.578 26.8226C184.749 26.8226 181.895 25.9884 180.019 24.3202C178.134 22.6422 177.194 20.1013 177.194 16.6924Z" fill="#575656"/>
<path d="M155.246 26.3886V0.00482178H160.998V20.1688L157.599 21.8853H173.703V26.3886H155.246Z" fill="#575656"/>
<path d="M137.078 26.3886V4.35873H129.585V0.00482178H151.104V4.35873H139.923L143.611 5.81003V26.3886H137.078Z" fill="#575656"/>
<path d="M102.608 16.6924V0.00481895H108.279V16.9045C108.279 18.5198 108.582 19.7686 109.195 20.6413C108.534 20.4002 107.507 19.7541 107.165 19.4166C106.509 18.7753 108.38 21.4658 111.215 22.0781C111.977 22.3337 112.903 22.4638 113.992 22.4638C116.123 22.4638 117.642 22.0395 118.544 21.2006C119.455 20.352 119.908 18.92 119.908 16.8997V0H125.415V17.4879C125.415 20.487 124.426 22.7917 122.454 24.4021C120.473 26.0174 117.662 26.8226 113.992 26.8226C110.164 26.8226 107.31 25.9884 105.434 24.3202C103.544 22.6422 102.608 20.1013 102.608 16.6924Z" fill="#575656"/>
<path d="M76.5959 26.3886V0.00482178H82.2228V12.189L92.2854 0.00482178H98.7367L90.2652 9.62873L86.0704 14.7011L89.8409 13.0521L100.145 26.3886H92.2179L84.4166 15.945L82.2228 18.6644V26.3886H76.5959Z" fill="#575656"/>
<mask id="mask1_21_34" style="mask-type:luminance" maskUnits="userSpaceOnUse" x="75" y="27" width="125" height="9">
<path d="M99.8988 32.7387C99.8988 32.4445 99.8746 32.1745 99.8312 31.9335C99.7878 31.6924 99.7059 31.485 99.595 31.3115C99.4841 31.1379 99.3346 31.0077 99.1514 30.9113C98.9682 30.8197 98.7368 30.7714 98.4571 30.7714C98.1774 30.7714 97.946 30.8245 97.758 30.9306C97.5699 31.0366 97.4156 31.1765 97.3047 31.3549C97.189 31.5284 97.107 31.7358 97.0588 31.972C97.0106 32.2083 96.9865 32.459 96.9865 32.7194C96.9865 33.0231 97.0106 33.3028 97.054 33.5439C97.1022 33.7898 97.1794 33.9971 97.2854 34.1707C97.3963 34.3442 97.541 34.4744 97.7242 34.566C97.9074 34.6577 98.1437 34.701 98.4185 34.701C98.6982 34.701 98.9296 34.648 99.1177 34.5419C99.3057 34.4407 99.46 34.296 99.5709 34.1176C99.6866 33.9392 99.7686 33.7319 99.8168 33.4908C99.8746 33.2642 99.8988 33.0087 99.8988 32.7387ZM105.96 31.5959C105.96 31.4127 105.916 31.2536 105.834 31.1282C105.752 31.0029 105.612 30.9113 105.419 30.8582C105.362 30.8438 105.299 30.8341 105.222 30.8245C105.149 30.8148 105.043 30.81 104.918 30.81H104.407V32.3963H104.99C105.154 32.3963 105.294 32.377 105.415 32.3385C105.535 32.2999 105.636 32.2469 105.718 32.1745C105.8 32.107 105.858 32.0202 105.902 31.9238C105.94 31.8274 105.96 31.7165 105.96 31.5959ZM107.435 35.405C107.435 35.4339 107.43 35.4629 107.416 35.487C107.406 35.5111 107.377 35.5256 107.334 35.54C107.29 35.5545 107.228 35.5641 107.141 35.5689C107.059 35.5738 106.943 35.5786 106.798 35.5786C106.678 35.5786 106.581 35.5738 106.509 35.5689C106.437 35.5641 106.379 35.5545 106.336 35.5352C106.292 35.5207 106.263 35.5014 106.249 35.4725C106.234 35.4484 106.22 35.4195 106.205 35.3857L105.699 34.1321C105.636 33.9923 105.579 33.8621 105.521 33.7512C105.463 33.6403 105.4 33.5487 105.328 33.4764C105.256 33.404 105.174 33.3462 105.082 33.3076C104.99 33.269 104.884 33.2498 104.759 33.2498H104.402V35.3905C104.402 35.4195 104.392 35.4436 104.373 35.4677C104.354 35.4918 104.325 35.5111 104.282 35.5256C104.238 35.54 104.18 35.5496 104.108 35.5593C104.036 35.5689 103.944 35.5738 103.833 35.5738C103.722 35.5738 103.631 35.5689 103.558 35.5593C103.486 35.5496 103.428 35.54 103.385 35.5256C103.341 35.5111 103.312 35.4918 103.293 35.4677C103.274 35.4436 103.264 35.4195 103.264 35.3905V30.2989C103.264 30.1736 103.298 30.082 103.361 30.0241C103.423 29.9662 103.505 29.9421 103.602 29.9421H105.053C105.198 29.9421 105.323 29.9469 105.415 29.9518C105.511 29.9566 105.598 29.9662 105.675 29.9711C105.902 30.0048 106.104 30.0578 106.283 30.135C106.461 30.2121 106.615 30.3134 106.741 30.4388C106.866 30.5641 106.962 30.7136 107.03 30.8823C107.097 31.0559 107.131 31.2488 107.131 31.4754C107.131 31.6634 107.107 31.8322 107.059 31.9865C107.011 32.1408 106.938 32.2806 106.847 32.4011C106.755 32.5217 106.639 32.6278 106.504 32.7146C106.369 32.8062 106.215 32.8737 106.041 32.9315C106.123 32.9701 106.205 33.0183 106.278 33.0762C106.35 33.134 106.422 33.2064 106.485 33.2883C106.548 33.3703 106.61 33.4667 106.668 33.5728C106.726 33.6789 106.784 33.7994 106.837 33.9296L107.31 35.0386C107.353 35.1495 107.382 35.2266 107.396 35.2796C107.425 35.3327 107.435 35.3761 107.435 35.405ZM116.017 35.3954C116.017 35.4243 116.008 35.4484 115.993 35.4725C115.979 35.4966 115.95 35.5159 115.906 35.5304C115.863 35.5448 115.81 35.5545 115.738 35.5641C115.67 35.5738 115.579 35.5786 115.473 35.5786C115.366 35.5786 115.28 35.5738 115.212 35.5641C115.145 35.5545 115.087 35.5448 115.048 35.5304C115.01 35.5159 114.981 35.4966 114.961 35.4725C114.942 35.4484 114.933 35.4243 114.933 35.3954V30.8293H114.923L113.303 35.3905C113.293 35.4291 113.274 35.458 113.245 35.4821C113.216 35.5063 113.182 35.5256 113.139 35.54C113.095 35.5545 113.038 35.5641 112.97 35.5689C112.903 35.5738 112.816 35.5738 112.719 35.5738C112.618 35.5738 112.536 35.5689 112.469 35.5641C112.401 35.5545 112.343 35.5448 112.295 35.5304C112.252 35.5159 112.213 35.4966 112.189 35.4725C112.165 35.4484 112.146 35.4195 112.136 35.3905L110.574 30.8293H110.564V35.3954C110.564 35.4243 110.559 35.4484 110.54 35.4725C110.526 35.4966 110.492 35.5159 110.453 35.5304C110.41 35.5448 110.352 35.5545 110.284 35.5641C110.217 35.5738 110.13 35.5786 110.024 35.5786C109.918 35.5786 109.831 35.5738 109.764 35.5641C109.696 35.5545 109.638 35.5448 109.595 35.5304C109.552 35.5159 109.523 35.4966 109.508 35.4725C109.494 35.4484 109.484 35.4243 109.484 35.3954V30.4002C109.484 30.2507 109.523 30.1398 109.6 30.0627C109.677 29.9855 109.783 29.947 109.913 29.947H110.661C110.796 29.947 110.911 29.9566 111.003 29.9807C111.099 30.0048 111.181 30.0386 111.254 30.0868C111.321 30.135 111.379 30.2025 111.427 30.2845C111.475 30.3664 111.514 30.4677 111.548 30.5882L112.758 33.9296H112.777L114.026 30.5979C114.065 30.4773 114.103 30.3761 114.147 30.2893C114.195 30.2073 114.243 30.1398 114.306 30.0868C114.364 30.0337 114.436 30 114.518 29.9759C114.6 29.9518 114.691 29.9421 114.802 29.9421H115.574C115.651 29.9421 115.718 29.9518 115.776 29.9711C115.834 29.9903 115.878 30.0193 115.916 30.0578C115.955 30.0964 115.979 30.1446 115.998 30.1977C116.017 30.2555 116.027 30.3182 116.027 30.3905V35.3954H116.017ZM120.473 31.0077L119.687 33.3944H121.258L120.473 31.0077ZM123.047 35.1254C123.081 35.2266 123.105 35.3134 123.11 35.3713C123.12 35.4339 123.105 35.4773 123.076 35.5111C123.042 35.54 122.989 35.5593 122.907 35.5689C122.825 35.5786 122.715 35.5786 122.575 35.5786C122.425 35.5786 122.31 35.5786 122.232 35.5738C122.15 35.5689 122.088 35.5593 122.044 35.5497C122.001 35.5352 121.972 35.5207 121.953 35.4966C121.933 35.4725 121.919 35.4436 121.909 35.405L121.543 34.2767H119.426L119.074 35.3713C119.065 35.4147 119.045 35.4484 119.031 35.4725C119.012 35.5014 118.983 35.5207 118.939 35.5352C118.896 35.5497 118.838 35.5641 118.761 35.5689C118.684 35.5738 118.582 35.5786 118.457 35.5786C118.322 35.5786 118.221 35.5738 118.144 35.5641C118.067 35.5545 118.018 35.5352 117.989 35.5014C117.96 35.4677 117.951 35.4195 117.96 35.3616C117.97 35.2989 117.989 35.2218 118.023 35.1205L119.749 30.1446C119.764 30.0964 119.788 30.0579 119.812 30.0241C119.836 29.9952 119.87 29.9711 119.923 29.9566C119.976 29.9421 120.043 29.9277 120.135 29.9277C120.222 29.9228 120.342 29.9228 120.492 29.9228C120.661 29.9228 120.796 29.9228 120.897 29.9277C120.998 29.9325 121.075 29.9421 121.133 29.9566C121.191 29.9711 121.23 29.9952 121.254 30.0289C121.278 30.0627 121.302 30.1061 121.316 30.1591L123.047 35.1254ZM129.672 35.1495C129.672 35.217 129.662 35.2748 129.638 35.3279C129.614 35.3809 129.585 35.4243 129.542 35.458C129.503 35.4918 129.46 35.5159 129.402 35.5352C129.349 35.5497 129.296 35.5593 129.238 35.5593H128.751C128.65 35.5593 128.563 35.5496 128.486 35.5304C128.414 35.5111 128.346 35.4725 128.284 35.4195C128.221 35.3664 128.163 35.2941 128.105 35.2025C128.047 35.1109 127.985 34.9952 127.912 34.8505L126.519 32.2276C126.437 32.0685 126.355 31.9045 126.273 31.7213C126.191 31.5429 126.114 31.3645 126.046 31.1957H126.037C126.046 31.4031 126.056 31.6104 126.066 31.8177C126.07 32.0251 126.075 32.2372 126.075 32.4542V35.3905C126.075 35.4195 126.066 35.4436 126.051 35.4677C126.037 35.4918 126.008 35.5111 125.969 35.5256C125.931 35.54 125.878 35.5545 125.81 35.5641C125.743 35.5738 125.656 35.5786 125.554 35.5786C125.453 35.5786 125.366 35.5738 125.304 35.5641C125.236 35.5545 125.183 35.5448 125.149 35.5256C125.111 35.5111 125.087 35.4918 125.072 35.4677C125.058 35.4436 125.048 35.4195 125.048 35.3905V30.352C125.048 30.217 125.087 30.1157 125.169 30.0482C125.246 29.9807 125.347 29.947 125.463 29.947H126.075C126.186 29.947 126.278 29.9566 126.355 29.9759C126.432 29.9952 126.495 30.0241 126.557 30.0675C126.615 30.1109 126.673 30.1687 126.726 30.2459C126.779 30.323 126.832 30.4195 126.885 30.5304L127.975 32.5795C128.038 32.7049 128.1 32.8255 128.163 32.946C128.226 33.0665 128.284 33.1871 128.341 33.3076C128.399 33.4282 128.457 33.5439 128.51 33.6596C128.568 33.7753 128.621 33.891 128.669 34.0067H128.674C128.664 33.8042 128.66 33.5921 128.655 33.3751C128.65 33.1533 128.65 32.946 128.65 32.7435V30.1109C128.65 30.082 128.66 30.0578 128.679 30.0337C128.693 30.0096 128.727 29.9903 128.766 29.9711C128.809 29.9518 128.862 29.9421 128.925 29.9325C128.992 29.9228 129.079 29.9228 129.18 29.9228C129.282 29.9228 129.364 29.9277 129.431 29.9325C129.499 29.9421 129.547 29.9518 129.585 29.9711C129.619 29.9903 129.648 30.0096 129.663 30.0337C129.677 30.0578 129.687 30.082 129.687 30.1109V35.1495H129.672ZM137.903 28.9007C137.903 29.1032 137.864 29.243 137.782 29.325C137.7 29.4069 137.551 29.4455 137.329 29.4455C137.107 29.4455 136.958 29.4069 136.88 29.3298C136.803 29.2526 136.765 29.1176 136.765 28.92C136.765 28.7126 136.803 28.5728 136.885 28.4908C136.967 28.4137 137.117 28.3703 137.338 28.3703C137.56 28.3703 137.71 28.4089 137.787 28.486C137.864 28.5632 137.903 28.703 137.903 28.9007ZM136.013 28.9007C136.013 29.1032 135.974 29.243 135.892 29.325C135.81 29.4069 135.661 29.4455 135.439 29.4455C135.217 29.4455 135.068 29.4069 134.99 29.3298C134.913 29.2526 134.875 29.1176 134.875 28.92C134.875 28.7126 134.913 28.5728 134.995 28.4908C135.077 28.4137 135.227 28.3703 135.444 28.3703C135.665 28.3703 135.82 28.4089 135.897 28.486C135.979 28.5632 136.013 28.703 136.013 28.9007ZM138.684 33.4619C138.684 33.8042 138.635 34.1128 138.529 34.3828C138.428 34.6528 138.279 34.8843 138.086 35.0723C137.888 35.2604 137.647 35.405 137.358 35.5014C137.068 35.6027 136.736 35.6509 136.36 35.6509C136.008 35.6509 135.689 35.6075 135.41 35.5207C135.13 35.4339 134.894 35.2989 134.696 35.1205C134.503 34.9421 134.354 34.7203 134.253 34.4503C134.151 34.1851 134.098 33.8717 134.098 33.5149V30.1061C134.098 30.0771 134.108 30.053 134.122 30.0289C134.137 30.0048 134.171 29.9855 134.214 29.9711C134.257 29.9566 134.315 29.9469 134.392 29.9373C134.465 29.9277 134.556 29.9228 134.667 29.9228C134.773 29.9228 134.865 29.9277 134.937 29.9373C135.01 29.9469 135.068 29.9566 135.111 29.9711C135.154 29.9855 135.183 30.0048 135.203 30.0289C135.222 30.053 135.231 30.0771 135.231 30.1061V33.4185C135.231 33.6403 135.26 33.8332 135.313 33.9971C135.366 34.161 135.448 34.296 135.55 34.4021C135.651 34.5082 135.776 34.5902 135.916 34.6432C136.061 34.6962 136.22 34.7252 136.393 34.7252C136.572 34.7252 136.736 34.6962 136.876 34.6432C137.015 34.5902 137.136 34.5082 137.237 34.4021C137.334 34.296 137.411 34.1659 137.464 34.0116C137.517 33.8573 137.546 33.6789 137.546 33.486V30.1061C137.546 30.0771 137.555 30.053 137.575 30.0289C137.589 30.0048 137.623 29.9855 137.666 29.9711C137.71 29.9566 137.768 29.9469 137.845 29.9373C137.917 29.9277 138.009 29.9228 138.12 29.9228C138.23 29.9228 138.317 29.9277 138.39 29.9373C138.462 29.9469 138.52 29.9566 138.563 29.9711C138.607 29.9855 138.635 30.0048 138.655 30.0289C138.674 30.053 138.684 30.0771 138.684 30.1061V33.4619ZM143.814 31.5959C143.814 31.4127 143.771 31.2536 143.689 31.1282C143.607 31.0029 143.467 30.9113 143.274 30.8582C143.216 30.8438 143.153 30.8341 143.076 30.8245C143.004 30.8148 142.903 30.81 142.768 30.81H142.257V32.3963H142.84C143.004 32.3963 143.144 32.377 143.264 32.3385C143.385 32.2999 143.486 32.2469 143.568 32.1745C143.65 32.107 143.708 32.0202 143.751 31.9238C143.795 31.8274 143.814 31.7165 143.814 31.5959ZM145.284 35.405C145.284 35.4339 145.28 35.4629 145.265 35.487C145.256 35.5111 145.227 35.5256 145.183 35.54C145.14 35.5545 145.077 35.5641 144.99 35.5689C144.908 35.5738 144.793 35.5786 144.648 35.5786C144.527 35.5786 144.431 35.5738 144.359 35.5689C144.286 35.5641 144.229 35.5545 144.185 35.5352C144.142 35.5207 144.113 35.5014 144.098 35.4725C144.084 35.4484 144.069 35.4195 144.055 35.3857L143.549 34.1321C143.486 33.9923 143.428 33.8621 143.37 33.7512C143.312 33.6403 143.25 33.5487 143.177 33.4764C143.105 33.404 143.023 33.3462 142.932 33.3076C142.84 33.269 142.734 33.2498 142.608 33.2498H142.252V35.3905C142.252 35.4195 142.242 35.4436 142.223 35.4677C142.203 35.4918 142.175 35.5111 142.131 35.5256C142.088 35.54 142.03 35.5496 141.958 35.5593C141.885 35.5689 141.794 35.5738 141.683 35.5738C141.572 35.5738 141.48 35.5689 141.408 35.5593C141.336 35.5496 141.278 35.54 141.234 35.5256C141.191 35.5111 141.162 35.4918 141.143 35.4677C141.123 35.4436 141.114 35.4195 141.114 35.3905V30.2989C141.114 30.1736 141.148 30.082 141.21 30.0241C141.278 29.9662 141.355 29.9421 141.451 29.9421H142.903C143.047 29.9421 143.173 29.9469 143.264 29.9518C143.361 29.9566 143.447 29.9662 143.525 29.9711C143.751 30.0048 143.954 30.0578 144.132 30.135C144.311 30.2121 144.465 30.3134 144.59 30.4388C144.716 30.5641 144.812 30.7136 144.879 30.8823C144.947 31.0559 144.981 31.2488 144.981 31.4754C144.981 31.6634 144.957 31.8322 144.908 31.9865C144.86 32.1408 144.788 32.2806 144.696 32.4011C144.605 32.5217 144.489 32.6278 144.354 32.7146C144.219 32.8062 144.065 32.8737 143.891 32.9315C143.973 32.9701 144.055 33.0183 144.127 33.0762C144.2 33.134 144.272 33.2064 144.335 33.2883C144.397 33.3703 144.46 33.4667 144.518 33.5728C144.576 33.6789 144.634 33.7994 144.687 33.9296L145.159 35.0386C145.203 35.1495 145.231 35.2266 145.246 35.2796C145.28 35.3327 145.284 35.3761 145.284 35.405ZM151.128 28.9007C151.128 29.1032 151.09 29.243 151.008 29.325C150.926 29.4069 150.776 29.4455 150.554 29.4455C150.333 29.4455 150.183 29.4069 150.106 29.3298C150.029 29.2526 149.99 29.1176 149.99 28.92C149.99 28.7126 150.029 28.5728 150.111 28.4908C150.193 28.4137 150.342 28.3703 150.564 28.3703C150.786 28.3703 150.935 28.4089 151.013 28.486C151.09 28.5632 151.128 28.703 151.128 28.9007ZM149.238 28.9007C149.238 29.1032 149.2 29.243 149.118 29.325C149.036 29.4069 148.886 29.4455 148.664 29.4455C148.443 29.4455 148.293 29.4069 148.216 29.3298C148.139 29.2526 148.1 29.1176 148.1 28.92C148.1 28.7126 148.139 28.5728 148.221 28.4908C148.303 28.4137 148.452 28.3703 148.669 28.3703C148.891 28.3703 149.045 28.4089 149.122 28.486C149.2 28.5632 149.238 28.703 149.238 28.9007ZM151.905 33.4619C151.905 33.8042 151.856 34.1128 151.75 34.3828C151.649 34.6528 151.5 34.8843 151.307 35.0723C151.109 35.2604 150.868 35.405 150.579 35.5014C150.289 35.6027 149.957 35.6509 149.581 35.6509C149.229 35.6509 148.91 35.6075 148.631 35.5207C148.351 35.4339 148.115 35.2989 147.917 35.1205C147.724 34.9421 147.575 34.7203 147.473 34.4503C147.372 34.1851 147.319 33.8717 147.319 33.5149V30.1061C147.319 30.0771 147.329 30.053 147.348 30.0289C147.363 30.0048 147.396 29.9855 147.44 29.9711C147.483 29.9566 147.541 29.9469 147.618 29.9373C147.69 29.9277 147.782 29.9228 147.893 29.9228C147.999 29.9228 148.091 29.9277 148.163 29.9373C148.235 29.9469 148.293 29.9566 148.337 29.9711C148.38 29.9855 148.409 30.0048 148.428 30.0289C148.447 30.053 148.457 30.0771 148.457 30.1061V33.4185C148.457 33.6403 148.486 33.8332 148.539 33.9971C148.592 34.161 148.674 34.296 148.775 34.4021C148.877 34.5082 149.002 34.5902 149.142 34.6432C149.286 34.6962 149.446 34.7252 149.619 34.7252C149.798 34.7252 149.961 34.6962 150.101 34.6432C150.241 34.5902 150.362 34.5082 150.463 34.4021C150.559 34.296 150.636 34.1659 150.689 34.0116C150.743 33.8573 150.771 33.6789 150.771 33.486V30.1061C150.771 30.0771 150.781 30.053 150.8 30.0289C150.815 30.0048 150.849 29.9855 150.892 29.9711C150.935 29.9566 150.993 29.9469 151.07 29.9373C151.143 29.9277 151.234 29.9228 151.345 29.9228C151.456 29.9228 151.543 29.9277 151.615 29.9373C151.688 29.9469 151.745 29.9566 151.789 29.9711C151.832 29.9855 151.861 30.0048 151.88 30.0289C151.9 30.053 151.905 30.0771 151.905 30.1061V33.4619ZM158.968 35.1495C158.968 35.217 158.959 35.2748 158.934 35.3279C158.91 35.3809 158.881 35.4243 158.838 35.458C158.799 35.4918 158.756 35.5159 158.698 35.5352C158.645 35.5497 158.592 35.5593 158.534 35.5593H158.047C157.946 35.5593 157.859 35.5496 157.782 35.5304C157.71 35.5111 157.642 35.4725 157.58 35.4195C157.517 35.3664 157.459 35.2941 157.401 35.2025C157.343 35.1109 157.281 34.9952 157.208 34.8505L155.815 32.2276C155.733 32.0685 155.651 31.9045 155.569 31.7213C155.487 31.5429 155.41 31.3645 155.342 31.1957H155.333C155.342 31.4031 155.352 31.6104 155.362 31.8177C155.366 32.0251 155.371 32.2372 155.371 32.4542V35.3905C155.371 35.4195 155.362 35.4436 155.347 35.4677C155.333 35.4918 155.304 35.5111 155.265 35.5256C155.227 35.54 155.174 35.5545 155.106 35.5641C155.039 35.5738 154.952 35.5786 154.851 35.5786C154.749 35.5786 154.663 35.5738 154.6 35.5641C154.532 35.5545 154.479 35.5448 154.446 35.5256C154.407 35.5111 154.383 35.4918 154.368 35.4677C154.354 35.4436 154.344 35.4195 154.344 35.3905V30.352C154.344 30.217 154.383 30.1157 154.465 30.0482C154.542 29.9807 154.643 29.947 154.759 29.947H155.371C155.482 29.947 155.574 29.9566 155.651 29.9759C155.728 29.9952 155.791 30.0241 155.853 30.0675C155.911 30.1109 155.969 30.1687 156.022 30.2459C156.075 30.323 156.128 30.4195 156.181 30.5304L157.271 32.5795C157.334 32.7049 157.396 32.8255 157.459 32.946C157.522 33.0665 157.58 33.1871 157.637 33.3076C157.695 33.4282 157.753 33.5439 157.806 33.6596C157.864 33.7753 157.917 33.891 157.965 34.0067H157.97C157.96 33.8042 157.956 33.5921 157.951 33.3751C157.946 33.1533 157.946 32.946 157.946 32.7435V30.1109C157.946 30.082 157.956 30.0578 157.975 30.0337C157.989 30.0096 158.023 29.9903 158.062 29.9711C158.105 29.9518 158.158 29.9421 158.221 29.9325C158.288 29.9228 158.375 29.9228 158.476 29.9228C158.578 29.9228 158.66 29.9277 158.727 29.9325C158.795 29.9421 158.843 29.9518 158.881 29.9711C158.915 29.9903 158.944 30.0096 158.959 30.0337C158.973 30.0578 158.983 30.082 158.983 30.1109V35.1495H158.968ZM164.484 35.0723C164.484 35.1591 164.479 35.2314 164.474 35.2893C164.465 35.3471 164.455 35.3954 164.441 35.4339C164.426 35.4725 164.407 35.5014 164.388 35.5207C164.364 35.54 164.339 35.5448 164.311 35.5448H161.741C161.644 35.5448 161.567 35.5159 161.5 35.4629C161.437 35.405 161.403 35.3134 161.403 35.188V30.0964C161.403 30.0675 161.413 30.0434 161.432 30.0193C161.451 29.9952 161.48 29.9759 161.524 29.9614C161.567 29.947 161.625 29.9373 161.702 29.9277C161.774 29.918 161.866 29.9132 161.977 29.9132C162.088 29.9132 162.184 29.918 162.257 29.9277C162.329 29.9373 162.387 29.947 162.43 29.9614C162.473 29.9759 162.502 29.9952 162.522 30.0193C162.541 30.0434 162.551 30.0675 162.551 30.0964V34.6094H164.311C164.339 34.6094 164.364 34.6191 164.388 34.6336C164.412 34.648 164.426 34.6769 164.441 34.7107C164.455 34.7445 164.465 34.7927 164.474 34.8553C164.484 34.9132 164.484 34.9855 164.484 35.0723ZM169.696 35.1012C169.696 35.1832 169.691 35.2555 169.687 35.3134C169.677 35.3713 169.667 35.4147 169.653 35.4484C169.638 35.4822 169.619 35.5111 169.6 35.5256C169.581 35.54 169.552 35.5497 169.527 35.5497H166.716C166.62 35.5497 166.543 35.5207 166.475 35.4677C166.413 35.4098 166.379 35.3182 166.379 35.1929V30.3037C166.379 30.1784 166.413 30.0868 166.475 30.0289C166.538 29.9711 166.62 29.947 166.716 29.947H169.518C169.542 29.947 169.566 29.9566 169.585 29.9711C169.605 29.9855 169.624 30.0096 169.638 30.0482C169.653 30.0868 169.662 30.1302 169.672 30.188C169.682 30.2459 169.682 30.3182 169.682 30.405C169.682 30.487 169.677 30.5545 169.672 30.6123C169.662 30.6702 169.653 30.7136 169.638 30.7473C169.624 30.7811 169.605 30.81 169.585 30.8245C169.566 30.839 169.542 30.8486 169.518 30.8486H167.517V32.2131H169.204C169.233 32.2131 169.253 32.2228 169.277 32.2372C169.301 32.2517 169.315 32.2758 169.33 32.3095C169.344 32.3433 169.354 32.3867 169.364 32.4445C169.373 32.5024 169.373 32.5699 169.373 32.6471C169.373 32.729 169.368 32.8013 169.364 32.8544C169.354 32.9074 169.344 32.9556 169.33 32.9846C169.315 33.0183 169.296 33.0424 169.277 33.0569C169.257 33.0713 169.233 33.081 169.204 33.081H167.517V34.6625H169.532C169.561 34.6625 169.581 34.6721 169.605 34.6866C169.629 34.701 169.643 34.73 169.658 34.7637C169.672 34.7975 169.682 34.8457 169.691 34.8987C169.691 34.947 169.696 35.0193 169.696 35.1012ZM174.609 31.5959C174.609 31.4127 174.566 31.2536 174.484 31.1282C174.402 31.0029 174.262 30.9113 174.069 30.8582C174.012 30.8438 173.949 30.8341 173.872 30.8245C173.799 30.8148 173.693 30.81 173.568 30.81H173.057V32.3963H173.64C173.804 32.3963 173.944 32.377 174.065 32.3385C174.185 32.2999 174.286 32.2469 174.368 32.1745C174.45 32.107 174.508 32.0202 174.552 31.9238C174.59 31.8274 174.609 31.7165 174.609 31.5959ZM176.085 35.405C176.085 35.4339 176.08 35.4629 176.066 35.487C176.056 35.5111 176.027 35.5256 175.984 35.54C175.94 35.5545 175.878 35.5641 175.791 35.5689C175.709 35.5738 175.593 35.5786 175.448 35.5786C175.328 35.5786 175.231 35.5738 175.159 35.5689C175.087 35.5641 175.029 35.5545 174.986 35.5352C174.942 35.5207 174.913 35.5014 174.899 35.4725C174.884 35.4484 174.87 35.4195 174.855 35.3857L174.349 34.1321C174.286 33.9923 174.229 33.8621 174.171 33.7512C174.113 33.6403 174.05 33.5487 173.978 33.4764C173.906 33.404 173.824 33.3462 173.732 33.3076C173.64 33.269 173.534 33.2498 173.409 33.2498H173.052V35.3905C173.052 35.4195 173.042 35.4436 173.023 35.4677C173.004 35.4918 172.975 35.5111 172.932 35.5256C172.888 35.54 172.83 35.5496 172.758 35.5593C172.686 35.5689 172.594 35.5738 172.483 35.5738C172.372 35.5738 172.281 35.5689 172.208 35.5593C172.136 35.5496 172.078 35.54 172.035 35.5256C171.991 35.5111 171.962 35.4918 171.943 35.4677C171.924 35.4436 171.914 35.4195 171.914 35.3905V30.2989C171.914 30.1736 171.948 30.082 172.011 30.0241C172.073 29.9662 172.155 29.9421 172.252 29.9421H173.703C173.848 29.9421 173.973 29.9469 174.065 29.9518C174.161 29.9566 174.248 29.9662 174.325 29.9711C174.552 30.0048 174.754 30.0578 174.933 30.135C175.111 30.2121 175.265 30.3134 175.391 30.4388C175.516 30.5641 175.612 30.7136 175.68 30.8823C175.747 31.0559 175.781 31.2488 175.781 31.4754C175.781 31.6634 175.757 31.8322 175.709 31.9865C175.661 32.1408 175.588 32.2806 175.497 32.4011C175.405 32.5217 175.289 32.6278 175.154 32.7146C175.019 32.8062 174.865 32.8737 174.691 32.9315C174.773 32.9701 174.855 33.0183 174.928 33.0762C175 33.134 175.072 33.2064 175.135 33.2883C175.198 33.3703 175.26 33.4667 175.318 33.5728C175.376 33.6789 175.434 33.7994 175.487 33.9296L175.96 35.0386C176.003 35.1495 176.032 35.2266 176.046 35.2796C176.075 35.3327 176.085 35.3761 176.085 35.405ZM179.315 28.9007C179.315 29.108 179.272 29.2478 179.19 29.3346C179.103 29.4166 178.949 29.46 178.717 29.46C178.486 29.46 178.327 29.4214 178.245 29.3394C178.163 29.2575 178.12 29.1225 178.12 28.9248C178.12 28.7174 178.163 28.5728 178.25 28.4908C178.337 28.4089 178.496 28.3703 178.722 28.3703C178.954 28.3703 179.108 28.4089 179.195 28.486C179.272 28.5583 179.315 28.6982 179.315 28.9007ZM179.277 35.3954C179.277 35.4243 179.267 35.4484 179.248 35.4725C179.229 35.4966 179.2 35.5159 179.156 35.5304C179.113 35.5448 179.055 35.5545 178.983 35.5641C178.91 35.5738 178.819 35.5786 178.703 35.5786C178.592 35.5786 178.5 35.5738 178.428 35.5641C178.356 35.5545 178.293 35.5448 178.25 35.5304C178.206 35.5159 178.177 35.4966 178.158 35.4725C178.139 35.4484 178.129 35.4243 178.129 35.3954V30.0964C178.129 30.0675 178.139 30.0434 178.158 30.0193C178.177 29.9952 178.206 29.9759 178.255 29.9614C178.298 29.947 178.356 29.9373 178.428 29.9277C178.5 29.918 178.592 29.9132 178.703 29.9132C178.814 29.9132 178.91 29.918 178.983 29.9277C179.055 29.9373 179.113 29.947 179.156 29.9614C179.2 29.9759 179.229 29.9952 179.248 30.0193C179.267 30.0434 179.277 30.0675 179.277 30.0964V35.3954ZM93.1581 33.8042C93.1581 33.8042 84.5902 33.3462 75.1205 27.9508C75.1205 27.9508 80.5593 33.6644 93.1967 35.0579C93.1919 35.0579 93.9296 34.4744 93.1581 33.8042ZM181.943 33.9971C181.943 33.9971 190.511 33.539 199.981 28.1437C199.981 28.1437 194.542 33.8573 181.905 35.2507C181.909 35.2507 181.172 34.6673 181.943 33.9971ZM101.095 32.6808C101.095 33.1437 101.037 33.5631 100.921 33.9296C100.805 34.296 100.632 34.6094 100.405 34.865C100.178 35.1205 99.8939 35.3182 99.5612 35.4484C99.2237 35.5834 98.8332 35.6509 98.3944 35.6509C97.9605 35.6509 97.5796 35.5931 97.2565 35.4773C96.9335 35.3616 96.6586 35.1929 96.4417 34.9566C96.2247 34.7252 96.0608 34.4262 95.9547 34.0646C95.8486 33.703 95.7908 33.2787 95.7908 32.7821C95.7908 32.3288 95.8486 31.919 95.9643 31.5574C96.08 31.1957 96.2536 30.8872 96.4802 30.6316C96.7069 30.3761 96.9913 30.1832 97.324 30.0482C97.6615 29.9132 98.0521 29.8457 98.4957 29.8457C98.92 29.8457 99.2961 29.9036 99.6191 30.0145C99.9422 30.1253 100.217 30.2989 100.434 30.5352C100.651 30.7666 100.815 31.0607 100.926 31.4175C101.037 31.7743 101.095 32.1986 101.095 32.6808Z" fill="white"/>
</mask>
<g mask="url(#mask1_21_34)">
<path d="M199.986 27.9508H75.1205V35.6461H199.986V27.9508Z" fill="url(#paint1_linear_21_34)"/>
</g>
<defs>
<linearGradient id="paint0_linear_21_34" x1="25.5459" y1="-0.174018" x2="36.9442" y2="35.8289" gradientUnits="userSpaceOnUse">
<stop stop-color="#34F86E"/>
<stop offset="0.21" stop-color="#32ED69"/>
<stop offset="0.78" stop-color="#1E893D"/>
<stop offset="1" stop-color="#1C8139"/>
</linearGradient>
<linearGradient id="paint1_linear_21_34" x1="137.912" y1="37.377" x2="137.189" y2="26.2246" gradientUnits="userSpaceOnUse">
<stop offset="1" stop-color="#1C8139"/>
</linearGradient>
</defs>
</svg>
