<svg width="319" height="110" viewBox="0 0 319 110" fill="none" xmlns="http://www.w3.org/2000/svg">
<path d="M4.998 86.883C5.051 86.883 5.104 86.881 5.157 86.875C13.102 86.038 23.376 79.615 33.721 71.213C34.159 80.378 38.314 87.564 38.512 87.901C38.6626 88.1559 38.8852 88.3607 39.1519 88.4895C39.4185 88.6183 39.7173 88.6654 40.0106 88.6249C40.3039 88.5844 40.5788 88.4581 40.8005 88.2618C41.0223 88.0656 41.1811 87.8082 41.257 87.522C42.293 83.578 43.886 79.732 44.836 78.796C46.759 80.621 51.449 88.118 54.079 92.633C54.2498 92.9284 54.5162 93.1568 54.8343 93.2803C55.1524 93.4037 55.5031 93.415 55.8285 93.3122C56.1539 93.2094 56.4344 92.9986 56.6238 92.7147C56.8132 92.4309 56.9 92.0909 56.87 91.751C56.392 86.107 57.045 77.537 59.99 76.152C62.963 74.755 67.867 78.056 74.079 82.236C75.881 83.449 77.745 84.703 79.756 85.976C80.231 86.278 80.836 86.288 81.32 86.001C81.804 85.714 82.089 85.182 82.056 84.62C81.946 82.752 82.951 80.681 84.886 78.789C87.391 76.339 91.036 74.629 93.368 74.826C93.6754 74.851 93.9831 74.7807 94.2491 74.6245C94.5151 74.4684 94.7265 74.2341 94.8545 73.9535C94.9825 73.6729 95.0209 73.3596 94.9644 73.0564C94.908 72.7532 94.7594 72.4747 94.539 72.259C90.189 67.999 89.242 61.117 90.198 58.939C90.2974 58.712 90.3391 58.464 90.3193 58.217C90.2995 57.97 90.2188 57.7317 90.0846 57.5235C89.9503 57.3152 89.7665 57.1434 89.5497 57.0235C89.3329 56.9035 89.0898 56.8391 88.842 56.836C86.072 56.803 84.395 56.624 82.074 56.376C81.067 56.269 79.949 56.149 78.582 56.024C74.98 55.695 72.589 54.595 72.184 53.082C71.934 52.15 72.498 51.037 73.62 50.248C77.181 47.741 95.585 36.765 95.77 36.654C96.0232 36.5031 96.2264 36.2809 96.354 36.0153C96.4817 35.7496 96.5283 35.4522 96.488 35.1602C96.4477 34.8682 96.3222 34.5946 96.1273 34.3735C95.9324 34.1524 95.6766 33.9936 95.392 33.917C93.15 33.31 89.239 31.669 88.29 29.849C86.24 25.921 86.858 21.418 90.356 14.791C90.5058 14.5075 90.5608 14.1836 90.513 13.8666C90.4652 13.5496 90.3171 13.2563 90.0904 13.0296C89.8637 12.8029 89.5704 12.6548 89.2534 12.607C88.9364 12.5592 88.6124 12.6142 88.329 12.764C81.704 16.262 77.2 16.881 73.271 14.83C71.451 13.881 69.81 9.96999 69.204 7.72799C69.1274 7.44335 68.9686 7.1876 68.7475 6.99268C68.5264 6.79775 68.2528 6.67229 67.9608 6.63196C67.6688 6.59164 67.3714 6.63823 67.1057 6.76593C66.84 6.89363 66.6179 7.09677 66.467 7.34999C66.357 7.53599 55.38 25.94 52.873 29.501C52.083 30.622 50.971 31.188 50.039 30.937C48.525 30.532 47.425 28.141 47.096 24.54C46.9882 23.373 46.8709 22.207 46.744 21.042C46.496 18.723 46.317 17.047 46.285 14.279C46.2819 14.0312 46.2175 13.7881 46.0975 13.5713C45.9775 13.3544 45.8058 13.1707 45.5975 13.0364C45.3893 12.9021 45.151 12.8215 44.904 12.8017C44.657 12.7819 44.409 12.8236 44.182 12.923C42.003 13.88 35.121 12.932 30.863 8.58199C30.6473 8.36157 30.3688 8.21302 30.0656 8.15657C29.7624 8.10012 29.4491 8.13852 29.1685 8.26652C28.8879 8.39453 28.6536 8.60593 28.4974 8.87192C28.3413 9.13792 28.271 9.44557 28.296 9.75299C28.485 12.084 26.781 15.731 24.332 18.235C22.44 20.169 20.385 21.19 18.501 21.064C18.2257 21.0501 17.9519 21.1113 17.7087 21.2409C17.4654 21.3705 17.262 21.5638 17.12 21.8C16.9799 22.0377 16.9081 22.3096 16.9125 22.5855C16.9169 22.8614 16.9974 23.1308 17.145 23.364C18.418 25.374 19.672 27.238 20.885 29.04C25.065 35.252 28.366 40.159 26.969 43.13C25.585 46.075 17.014 46.728 11.371 46.25C11.0321 46.2238 10.6942 46.3124 10.4117 46.5016C10.1293 46.6908 9.91875 46.9696 9.814 47.293C9.71138 47.6177 9.7223 47.9677 9.84498 48.2854C9.96765 48.603 10.1948 48.8695 10.489 49.041C15.005 51.67 22.502 56.36 24.326 58.284C23.39 59.234 19.545 60.826 15.601 61.862C15.3141 61.9371 15.0559 62.0955 14.8591 62.3173C14.6622 62.539 14.5355 62.8142 14.4949 63.1079C14.4544 63.4017 14.5018 63.7009 14.6312 63.9677C14.7606 64.2345 14.9662 64.457 15.222 64.607C15.55 64.799 22.386 68.745 31.217 69.352C21.006 77.568 11.672 83.171 4.843 83.891C4.46061 83.9306 4.10804 84.1156 3.85808 84.4077C3.60811 84.6998 3.47983 85.0767 3.49972 85.4606C3.51961 85.8445 3.68615 86.2061 3.96496 86.4708C4.24377 86.7355 4.61356 86.8831 4.998 86.883ZM20.131 63.629C23.214 62.561 26.673 60.969 27.327 59.058C27.605 58.245 27.461 57.412 26.923 56.711C25.605 54.998 20.684 51.756 16.824 49.359C21.625 49.179 27.907 48.19 29.684 44.41C31.805 39.899 28.084 34.369 23.374 27.369C22.5673 26.1756 21.7679 24.9772 20.976 23.774C22.876 23.256 24.766 22.085 26.476 20.337C28.659 18.105 30.286 15.232 30.963 12.606C35.019 15.518 40.025 16.557 43.333 16.183C43.413 18.099 43.571 19.588 43.761 21.364C43.867 22.36 43.986 23.465 44.109 24.816C44.731 31.634 47.606 33.396 49.264 33.839C51.428 34.415 53.804 33.393 55.326 31.232C57.322 28.398 64.206 16.969 67.403 11.634C68.317 13.779 69.8 16.406 71.883 17.493C75.861 19.568 80.287 19.506 85.9 17.222C83.615 22.835 83.553 27.261 85.629 31.239C86.716 33.322 89.343 34.806 91.489 35.72C86.154 38.917 74.725 45.801 71.891 47.797C69.73 49.319 68.706 51.699 69.284 53.859C69.727 55.517 71.49 58.392 78.308 59.014C79.656 59.137 80.76 59.255 81.753 59.361C83.531 59.551 85.022 59.711 86.94 59.79C86.565 63.099 87.605 68.104 90.517 72.16C87.892 72.837 85.018 74.464 82.787 76.646C81.038 78.356 79.866 80.246 79.349 82.146C78.1454 81.3541 76.9467 80.5547 75.753 79.748C68.753 75.038 63.224 71.317 58.713 73.438C54.933 75.215 53.944 81.498 53.764 86.298C51.368 82.439 48.126 77.517 46.413 76.199C45.9769 75.852 45.4373 75.6608 44.88 75.656C44.61 75.656 44.337 75.702 44.067 75.795C42.154 76.449 40.562 79.913 39.493 82.997C38.16 79.755 36.532 74.506 36.72 68.728C38.4617 67.2521 40.1812 65.7503 41.878 64.223C44.768 67.646 49.569 74.959 50.782 77.221C50.9702 77.5714 51.2898 77.8328 51.6706 77.9478C52.0515 78.0627 52.4623 78.0218 52.813 77.834C52.9866 77.7409 53.1402 77.6145 53.265 77.4621C53.3897 77.3096 53.4833 77.1341 53.5402 76.9455C53.5971 76.7569 53.6163 76.5589 53.5967 76.3629C53.5771 76.1668 53.5191 75.9766 53.426 75.803C52.339 73.776 48.368 67.656 45.299 63.697C56.26 64.268 65.765 67.228 72.876 69.449C76.309 70.522 79.273 71.448 81.712 71.903C81.9057 71.939 82.1046 71.9366 82.2974 71.8958C82.4901 71.8549 82.6729 71.7765 82.8354 71.6651C82.9978 71.5536 83.1367 71.4112 83.2442 71.246C83.3516 71.0809 83.4255 70.8962 83.4615 70.7025C83.4975 70.5088 83.4951 70.3099 83.4543 70.1171C83.4134 69.9244 83.3351 69.7416 83.2236 69.5791C83.1121 69.4166 82.9697 69.2777 82.8046 69.1703C82.6394 69.0629 82.4547 68.989 82.261 68.953C79.997 68.531 77.111 67.629 73.769 66.585C66.551 64.33 56.923 61.331 45.702 60.713C58.749 48.523 70.437 35.36 75.837 29.09C75.9656 28.9407 76.0635 28.7675 76.1251 28.5804C76.1867 28.3932 76.2109 28.1958 76.1962 27.9993C76.1816 27.8028 76.1283 27.6111 76.0396 27.4352C75.9508 27.2593 75.8283 27.1026 75.679 26.974C75.5297 26.8454 75.3565 26.7475 75.1694 26.6859C74.9822 26.6243 74.7848 26.6001 74.5883 26.6147C74.3918 26.6294 74.2001 26.6826 74.0242 26.7714C73.8483 26.8601 73.6916 26.9827 73.563 27.132C64.242 37.955 53.691 49.181 43.378 58.772C42.841 47.311 39.957 37.674 37.795 30.473C36.833 27.269 36.003 24.503 35.588 22.281C35.5519 22.0873 35.478 21.9026 35.3705 21.7375C35.263 21.5723 35.124 21.43 34.9615 21.3185C34.799 21.2071 34.6162 21.1288 34.4234 21.088C34.2306 21.0473 34.0317 21.0449 33.838 21.081C33.6443 21.1171 33.4596 21.191 33.2945 21.2985C33.1293 21.406 32.987 21.545 32.8756 21.7075C32.7641 21.87 32.6858 22.0528 32.645 22.2456C32.6043 22.4384 32.6019 22.6373 32.638 22.831C33.082 25.211 33.934 28.05 34.921 31.336C37.028 38.353 39.835 47.735 40.374 58.782C36.571 55.864 30.861 52.257 28.739 51.118C28.3884 50.9299 27.9774 50.8889 27.5965 51.0038C27.2157 51.1188 26.896 51.3804 26.708 51.731C26.52 52.0816 26.4789 52.4926 26.5939 52.8734C26.7088 53.2543 26.9704 53.5739 27.321 53.762C29.628 54.999 36.381 59.323 39.733 62.099C38.1105 63.5547 36.4674 64.9872 34.804 66.396C28.875 66.674 23.456 64.993 20.131 63.629Z" fill="#06113C"/>
<path d="M150.75 50H143.562L129.438 34.625H129.312V50H124.188V2.625H129.312V32.6562H129.438L142.875 18H149.594L134.75 33.4375L150.75 50ZM185.075 50H179.95V44.9375H179.825C177.7 48.8125 174.408 50.75 169.95 50.75C162.325 50.75 158.513 46.2083 158.513 37.125V18H163.606V36.3125C163.606 43.0625 166.19 46.4375 171.356 46.4375C173.856 46.4375 175.908 45.5208 177.513 43.6875C179.138 41.8333 179.95 39.4167 179.95 36.4375V18H185.075V50ZM213.494 49.6875C212.285 50.3542 210.692 50.6875 208.713 50.6875C203.108 50.6875 200.306 47.5625 200.306 41.3125V22.375H194.806V18H200.306V10.1875L205.431 8.53125V18H213.494V22.375H205.431V40.4062C205.431 42.5521 205.796 44.0833 206.525 45C207.254 45.9167 208.463 46.375 210.15 46.375C211.442 46.375 212.556 46.0208 213.494 45.3125V49.6875ZM228.662 50H223.537V2.625H228.662V50ZM268.113 50H262.988V44.9375H262.863C260.738 48.8125 257.446 50.75 252.988 50.75C245.363 50.75 241.55 46.2083 241.55 37.125V18H246.644V36.3125C246.644 43.0625 249.227 46.4375 254.394 46.4375C256.894 46.4375 258.946 45.5208 260.55 43.6875C262.175 41.8333 262.988 39.4167 262.988 36.4375V18H268.113V50Z" fill="#06113C"/>
<path d="M137.562 97.75C132.833 97.75 129.052 96.2604 126.219 93.2812C123.406 90.2812 122 86.3125 122 81.375C122 76 123.469 71.8021 126.406 68.7812C129.344 65.7604 133.312 64.25 138.312 64.25C143.083 64.25 146.802 65.7188 149.469 68.6562C152.156 71.5938 153.5 75.6667 153.5 80.875C153.5 85.9792 152.052 90.0729 149.156 93.1562C146.281 96.2188 142.417 97.75 137.562 97.75ZM137.938 68.5625C134.646 68.5625 132.042 69.6875 130.125 71.9375C128.208 74.1667 127.25 77.25 127.25 81.1875C127.25 84.9792 128.219 87.9688 130.156 90.1562C132.094 92.3438 134.688 93.4375 137.938 93.4375C141.25 93.4375 143.792 92.3646 145.562 90.2188C147.354 88.0729 148.25 85.0208 148.25 81.0625C148.25 77.0625 147.354 73.9792 145.562 71.8125C143.792 69.6458 141.25 68.5625 137.938 68.5625ZM181.575 70.1875C180.679 69.5 179.388 69.1562 177.7 69.1562C175.513 69.1562 173.679 70.1875 172.2 72.25C170.742 74.3125 170.013 77.125 170.013 80.6875V97H164.888V65H170.013V71.5938H170.138C170.867 69.3438 171.981 67.5938 173.481 66.3438C174.981 65.0729 176.658 64.4375 178.513 64.4375C179.846 64.4375 180.867 64.5833 181.575 64.875V70.1875ZM235.775 97H230.65V78.625C230.65 75.0833 230.098 72.5208 228.994 70.9375C227.91 69.3542 226.077 68.5625 223.494 68.5625C221.306 68.5625 219.442 69.5625 217.9 71.5625C216.379 73.5625 215.619 75.9583 215.619 78.75V97H210.494V78C210.494 71.7083 208.067 68.5625 203.213 68.5625C200.963 68.5625 199.108 69.5104 197.65 71.4062C196.192 73.2812 195.463 75.7292 195.463 78.75V97H190.338V65H195.463V70.0625H195.588C197.858 66.1875 201.171 64.25 205.525 64.25C207.713 64.25 209.619 64.8646 211.244 66.0938C212.869 67.3021 213.983 68.8958 214.588 70.875C216.963 66.4583 220.504 64.25 225.213 64.25C232.254 64.25 235.775 68.5938 235.775 77.2812V97ZM271.569 97H266.444V92H266.319C264.09 95.8333 260.808 97.75 256.475 97.75C253.287 97.75 250.787 96.9062 248.975 95.2188C247.183 93.5312 246.287 91.2917 246.287 88.5C246.287 82.5208 249.808 79.0417 256.85 78.0625L266.444 76.7188C266.444 71.2812 264.246 68.5625 259.85 68.5625C255.996 68.5625 252.517 69.875 249.412 72.5V67.25C252.558 65.25 256.183 64.25 260.287 64.25C267.808 64.25 271.569 68.2292 271.569 76.1875V97ZM266.444 80.8125L258.725 81.875C256.35 82.2083 254.558 82.8021 253.35 83.6562C252.142 84.4896 251.537 85.9792 251.537 88.125C251.537 89.6875 252.09 90.9688 253.194 91.9688C254.319 92.9479 255.808 93.4375 257.662 93.4375C260.204 93.4375 262.298 92.5521 263.944 90.7812C265.61 88.9896 266.444 86.7292 266.444 84V80.8125ZM310.988 97H305.863V78.75C305.863 71.9583 303.383 68.5625 298.425 68.5625C295.863 68.5625 293.738 69.5312 292.05 71.4688C290.383 73.3854 289.55 75.8125 289.55 78.75V97H284.425V65H289.55V70.3125H289.675C292.092 66.2708 295.592 64.25 300.175 64.25C303.675 64.25 306.352 65.3854 308.206 67.6562C310.06 69.9062 310.988 73.1667 310.988 77.4375V97Z" fill="#06113C"/>
<line x1="110.5" x2="110.5" y2="100" stroke="#FF8C32" stroke-width="5"/>
</svg>
