<svg width="130" height="72" viewBox="0 0 130 72" fill="none" xmlns="http://www.w3.org/2000/svg">
<mask id="mask0_21_2" style="mask-type:luminance" maskUnits="userSpaceOnUse" x="0" y="0" width="130" height="72">
<path d="M67.13 39.06C67.13 39.06 55.4 44.95 44.27 47.16C44.27 47.16 58.74 56.96 66.26 66.65H66.22L68.8 70.42C68.93 70.65 69.05 70.87 69.17 71.1L69.25 71.08L69.26 71.09C102.96 69.83 129.59 54.42 129.59 35.59C129.59 23.6 118.79 12.99 102.24 6.54001L95.58 17.26C106.13 22.39 112.84 30.09 112.84 38.71C112.84 47.59 105.71 55.51 94.61 60.62C94.54 60.52 86.65 48.28 67.13 39.06ZM64.8 0C75.66 0 85.88 1.47 94.87 4.06L94.9 4.07001L94.98 4.09L96.56 4.56C76.32 40.42 41.43 46.27 41.43 46.27L34.27 42.96C53.03 31.63 62.42 19.29 67.01 10.79L70.64 1.97L65.13 10.77H65.2C48.32 10.87 16.75 18.09 16.75 38.7C16.75 53.95 37.74 66.34 63.83 66.64L65 71.16H64.79C29.01 71.16 0 55.23 0 35.57C0.01 15.94 29.02 0 64.8 0Z" fill="white"/>
</mask>
<g mask="url(#mask0_21_2)">
<path d="M129.59 0H0.0100098V71.18H129.59V0Z" fill="url(#paint0_linear_21_2)"/>
</g>
<defs>
<linearGradient id="paint0_linear_21_2" x1="52.9822" y1="-1.7409" x2="76.6222" y2="72.9291" gradientUnits="userSpaceOnUse">
<stop stop-color="#34F86E"/>
<stop offset="0.21" stop-color="#32ED69"/>
<stop offset="0.78" stop-color="#1E893D"/>
<stop offset="1" stop-color="#1C8139"/>
</linearGradient>
</defs>
</svg>
